<svg xmlns="http://www.w3.org/2000/svg" version="1.1" xmlns:xlink="http://www.w3.org/1999/xlink" xmlns:svgjs="http://svgjs.dev/svgjs" width="2000" height="297" viewBox="0 0 2000 297"><g transform="matrix(1,0,0,1,-1.2121212121212466,-0.3205143367950427)"><svg viewBox="0 0 396 59" data-background-color="#302e31" preserveAspectRatio="xMidYMid meet" height="297" width="2000" xmlns="http://www.w3.org/2000/svg" xmlns:xlink="http://www.w3.org/1999/xlink"><g id="tight-bounds" transform="matrix(1,0,0,1,0.2400000000000091,0.06367119821854317)"><svg viewBox="0 0 395.52 58.8726576035629" height="58.8726576035629" width="395.52"><g><svg viewBox="0 0 531.2564945330629 79.07686514541388" height="58.8726576035629" width="395.52"><g transform="matrix(1,0,0,1,135.73649453306294,10.928857628635352)"><svg viewBox="0 0 395.52 57.21914988814317" height="57.21914988814317" width="395.52"><g id="textblocktransform"><svg viewBox="0 0 395.52 57.21914988814317" height="57.21914988814317" width="395.52" id="textblock"><g><svg viewBox="0 0 395.52 57.21914988814317" height="57.21914988814317" width="395.52"><g transform="matrix(1,0,0,1,0,0)"><svg width="395.52" viewBox="3.45 -38.15 267.03000000000003 38.8" height="57.21914988814317" data-palette-color="url(#fc051539-70ec-4f6c-a637-a372fc47a535)"><g class="wordmark-text-0" data-fill-palette-color="primary" id="text-0"><path d="M162.49-32L165.79-32Q165.44-30.25 165.16-28.43 164.89-26.6 164.79-24.85L164.79-24.85 171.19-24.85 170.34-21.55 164.79-21.55 164.79-6.1Q164.79-5.2 164.99-4.48 165.19-3.75 165.74-3.33 166.29-2.9 167.34-2.9L167.34-2.9Q168.14-2.9 168.94-3.05 169.74-3.2 170.49-3.4L170.49-3.4 171.19-0.4Q169.94-0.05 168.71 0.25 167.49 0.55 166.04 0.55L166.04 0.55Q162.84 0.55 161.54-1.13 160.24-2.8 160.24-5.9L160.24-5.9 160.24-21.55 156.44-21.55 156.44-24.2Q158.44-24.25 159.64-25.53 160.84-26.8 161.49-28.6 162.14-30.4 162.49-32L162.49-32ZM181.44-33.35L181.44-33.35Q181.44-32.05 180.51-31.1 179.59-30.15 178.19-30.15L178.19-30.15Q176.89-30.15 175.96-31.1 175.04-32.05 175.04-33.35L175.04-33.35Q175.04-34.65 175.96-35.6 176.89-36.55 178.23-36.55L178.23-36.55Q179.54-36.55 180.48-35.6 181.44-34.65 181.44-33.35ZM175.39-24.85L180.54-24.85 180.54 0 175.99 0 175.99-21.95 175.39-24.85ZM198.33-25.45L198.33-25.45Q200.23-25.45 202.18-24.83 204.13-24.2 205.93-22.95L205.93-22.95 203.53-19.85Q202.13-20.95 200.83-21.48 199.53-22 198.23-22L198.23-22Q196.68-22 195.46-21.28 194.23-20.55 193.31-19.25 192.38-17.95 191.91-16.23 191.43-14.5 191.43-12.45L191.43-12.45Q191.43-7.85 193.48-5.4 195.53-2.95 198.73-2.95L198.73-2.95Q200.18-2.95 201.56-3.38 202.93-3.8 204.43-4.7L204.43-4.7 205.83-1.85Q203.78-0.6 201.96 0.03 200.13 0.65 197.78 0.65L197.78 0.65Q194.43 0.65 191.91-1 189.38-2.65 187.96-5.63 186.53-8.6 186.53-12.6L186.53-12.6Q186.53-16.5 188.11-19.4 189.68-22.3 192.38-23.88 195.08-25.45 198.33-25.45ZM210.28-38.15L215.53-38.15 215.53-14.6 224.48-24.85 229.23-24.85 219.98-14.4 230.58 0 225.28 0 215.53-13.35 215.53 0 210.93 0 210.93-35.3 210.28-38.15ZM243.68-25.45L243.68-25.45Q246.78-25.45 248.85-24.18 250.93-22.9 251.98-20.68 253.03-18.45 253.03-15.6L253.03-15.6Q253.03-14.9 252.95-14.15 252.88-13.4 252.73-12.55L252.73-12.55 237.03-12.55Q237.03-8 239.1-5.5 241.18-3 244.58-3L244.58-3Q246.03-3 247.63-3.45 249.23-3.9 250.93-4.85L250.93-4.85 252.48-2.15Q250.78-0.75 248.48-0.05 246.18 0.65 243.98 0.65L243.98 0.65Q240.08 0.65 237.45-1.15 234.83-2.95 233.53-5.9 232.23-8.85 232.23-12.15L232.23-12.15Q232.23-14.7 232.95-17.05 233.68-19.4 235.13-21.33 236.58-23.25 238.7-24.35 240.83-25.45 243.68-25.45ZM243.33-22.1L243.33-22.1Q241.63-22.1 240.35-21.18 239.08-20.25 238.33-18.8 237.58-17.35 237.33-15.85L237.33-15.85 248.28-15.85Q248.38-17.8 247.78-19.2 247.18-20.6 246.05-21.35 244.93-22.1 243.33-22.1ZM261.78-32L265.08-32Q264.73-30.25 264.45-28.43 264.18-26.6 264.08-24.85L264.08-24.85 270.48-24.85 269.63-21.55 264.08-21.55 264.08-6.1Q264.08-5.2 264.28-4.48 264.48-3.75 265.03-3.33 265.58-2.9 266.63-2.9L266.63-2.9Q267.43-2.9 268.23-3.05 269.03-3.2 269.78-3.4L269.78-3.4 270.48-0.4Q269.23-0.05 268 0.25 266.78 0.55 265.33 0.55L265.33 0.55Q262.13 0.55 260.83-1.13 259.53-2.8 259.53-5.9L259.53-5.9 259.53-21.55 255.73-21.55 255.73-24.2Q257.73-24.25 258.93-25.53 260.13-26.8 260.78-28.6 261.43-30.4 261.78-32L261.78-32Z" fill="#e1e1e3" data-fill-palette-color="secondary"></path></g></svg></g></svg></g></svg></g></svg></g><g><svg viewBox="0 0 122.22842650406966 79.07686514541388" height="79.07686514541388" width="122.22842650406966"><g><svg xmlns="http://www.w3.org/2000/svg" xmlns:xlink="http://www.w3.org/1999/xlink" version="1.1" x="0" y="0" viewBox="5.114 21.264000000000003 87.228 56.432999999999986" enable-background="new 0 0 100 100" xml:space="preserve" height="79.07686514541388" width="122.22842650406966" class="icon-icon-0" data-fill-palette-color="accent" id="icon-0"><g fill="#ddca50" data-fill-palette-color="accent"><polygon points="44.094,68.482 88.713,49.997 84.338,39.434 92.342,39.434 92.342,69.295 42.136,69.295 43.674,68.661  " fill="#ddca50" data-fill-palette-color="accent"></polygon><polygon points="29.636,38.283 15.857,43.992 15.857,38.283  " fill="#ddca50" data-fill-palette-color="accent"></polygon></g><g fill="#ddca50" data-fill-palette-color="accent"><path d="M81.79 38.283l-7.053-17.019L33.652 38.283l-13.781 5.709L5.114 50.111l3.737 9.026c0.042-0.023 0.086-0.05 0.126-0.063 2.64-1.092 5.662 0.16 6.752 2.797 1.09 2.641-0.162 5.662-2.799 6.755-0.047 0.015-0.092 0.026-0.131 0.045l3.737 9.026 23.049-9.552 1.541-0.636 0.417-0.171 44.619-18.486L81.79 38.283zM33.477 64.547l1.271-0.537 0.645 1.548-1.273 0.544L33.477 64.547zM34.107 62.46l-1.273 0.532-0.643-1.552 1.273-0.539L34.107 62.46zM32.818 59.351l-1.271 0.54-0.645-1.557 1.273-0.532L32.818 59.351zM31.533 56.249l-1.273 0.538-0.645-1.553 1.273-0.54L31.533 56.249zM30.246 53.146l-1.271 0.534-0.645-1.552 1.273-0.533L30.246 53.146zM28.961 50.039l-1.273 0.542-0.642-1.552 1.271-0.538L28.961 50.039zM27.676 46.937l-1.268 0.535-0.65-1.552 1.271-0.538L27.676 46.937zM25.745 42.283l0.645 1.55-1.273 0.542-0.638-1.557L25.745 42.283zM36.679 68.669l-1.273 0.536-0.457-1.108-0.186-0.45 1.271-0.532 0.368 0.883L36.679 68.669z" fill="#ddca50" data-fill-palette-color="accent"></path></g></svg></g></svg></g></svg></g><defs></defs><mask id="3fdc5511-5f9f-426a-8afd-fbf150c97e41"><g id="SvgjsG1678"><svg viewBox="0 0 395.52 58.8726576035629" height="58.8726576035629" width="395.52"><g><svg viewBox="0 0 531.2564945330629 79.07686514541388" height="58.8726576035629" width="395.52"><g transform="matrix(1,0,0,1,135.73649453306294,10.928857628635352)"><svg viewBox="0 0 395.52 57.21914988814317" height="57.21914988814317" width="395.52"><g id="SvgjsG1677"><svg viewBox="0 0 395.52 57.21914988814317" height="57.21914988814317" width="395.52" id="SvgjsSvg1676"><g><svg viewBox="0 0 395.52 57.21914988814317" height="57.21914988814317" width="395.52"><g transform="matrix(1,0,0,1,0,0)"><svg width="395.52" viewBox="3.45 -38.15 267.03000000000003 38.8" height="57.21914988814317" data-palette-color="url(#fc051539-70ec-4f6c-a637-a372fc47a535)"><g class="wordmark-text-0" data-fill-palette-color="primary" id="SvgjsG1675"><path d="M26.45 0L26.45-17 9.25-17 9.25 0 4.15 0 4.15-33.2Q4.15-33.25 3.98-33.98 3.8-34.7 3.65-35.5 3.5-36.3 3.45-36.45L3.45-36.45 9.25-36.45 9.25-20.75 26.45-20.75 26.45-36.45 31.6-36.45 31.6 0 26.45 0ZM48.35-25.45L48.35-25.45Q52.3-25.45 54.35-23.33 56.4-21.2 56.4-17.25L56.4-17.25 56.4-5.15Q56.4-4 56.8-3.6 57.2-3.2 57.8-3.2L57.8-3.2Q58.25-3.2 58.75-3.33 59.25-3.45 59.7-3.65L59.7-3.65 60.6-0.8Q59.75-0.3 58.5 0.08 57.25 0.45 55.95 0.45L55.95 0.45Q54.55 0.45 53.5-0.28 52.45-1 52.15-2.95L52.15-2.95Q50.7-1.3 48.77-0.38 46.85 0.55 44.65 0.55L44.65 0.55Q41.7 0.55 39.72-1.18 37.75-2.9 37.75-5.95L37.75-5.95Q37.75-8.8 39.1-10.5 40.45-12.2 42.62-13.08 44.8-13.95 47.25-14.25 49.7-14.55 51.85-14.55L51.85-14.55 51.85-17.35Q51.85-19.4 51-20.7 50.15-22 47.8-22L47.8-22Q45.95-22 44.22-21.23 42.5-20.45 40.85-19.05L40.85-19.05 38.7-22.25Q40.8-23.85 43.27-24.65 45.75-25.45 48.35-25.45ZM51.85-9.6L51.85-11.1Q50.55-11.1 48.95-11 47.35-10.9 45.85-10.43 44.35-9.95 43.37-8.95 42.4-7.95 42.4-6.2L42.4-6.2Q42.4-4.65 43.5-3.93 44.6-3.2 46.15-3.2L46.15-3.2Q47.85-3.2 49.12-4.15 50.4-5.1 51.12-6.58 51.85-8.05 51.85-9.6L51.85-9.6ZM62.75-24.7L67.7-25.25Q68.05-24.45 68.27-23.58 68.5-22.7 68.6-21.85L68.6-21.85Q70.05-23.2 71.95-24.33 73.85-25.45 75.95-25.45L75.95-25.45Q78.25-25.45 79.95-24.5 81.65-23.55 82.65-21.4L82.65-21.4Q84.2-22.95 86.22-24.2 88.25-25.45 90.5-25.45L90.5-25.45Q93.25-25.45 94.87-24.3 96.5-23.15 97.22-21.2 97.95-19.25 97.95-16.65L97.95-16.65 97.95 0 93.4 0 93.4-15.55Q93.4-17 93.17-18.38 92.95-19.75 92.1-20.65 91.25-21.55 89.45-21.55L89.45-21.55Q87.8-21.55 86.15-20.48 84.5-19.4 83.4-18.3L83.4-18.3 83.4 0 78.85 0 78.85-15.55Q78.85-17 78.62-18.38 78.4-19.75 77.57-20.65 76.75-21.55 74.9-21.55L74.9-21.55Q73.9-21.55 72.77-21.05 71.65-20.55 70.65-19.8 69.65-19.05 68.9-18.35L68.9-18.35 68.9 0 64.35 0 64.35-18Q64.35-19 64.17-20.23 64-21.45 63.65-22.65 63.3-23.85 62.75-24.7L62.75-24.7ZM104.14-24.75L109.04-25.3Q109.99-23.05 110.19-20.55L110.19-20.55Q111.49-22.6 113.69-23.95 115.89-25.3 118.39-25.3L118.39-25.3 117.39-20.6Q115.04-20.6 113.34-19.38 111.64-18.15 110.29-16.15L110.29-16.15 110.29 0 105.74 0 105.74-18.05Q105.74-19 105.59-20.28 105.44-21.55 105.09-22.75 104.74-23.95 104.14-24.75L104.14-24.75ZM132.54 0.65L132.54 0.65Q128.89 0.65 126.37-1.15 123.84-2.95 122.57-5.9 121.29-8.85 121.29-12.25L121.29-12.25Q121.29-15.65 122.67-18.68 124.04-21.7 126.64-23.58 129.24-25.45 132.84-25.45L132.84-25.45Q136.54-25.45 139.07-23.68 141.59-21.9 142.87-18.95 144.14-16 144.14-12.55L144.14-12.55Q144.14-9.1 142.79-6.1 141.44-3.1 138.84-1.23 136.24 0.65 132.54 0.65ZM132.59-2.7L132.59-2.7Q134.49-2.7 135.77-3.6 137.04-4.5 137.82-5.98 138.59-7.45 138.92-9.15 139.24-10.85 139.24-12.4L139.24-12.4Q139.24-14 138.97-15.7 138.69-17.4 137.97-18.85 137.24-20.3 135.97-21.2 134.69-22.1 132.79-22.1L132.79-22.1Q130.89-22.1 129.62-21.18 128.34-20.25 127.59-18.78 126.84-17.3 126.49-15.63 126.14-13.95 126.14-12.4L126.14-12.4Q126.14-10.9 126.47-9.2 126.79-7.5 127.52-6.03 128.24-4.55 129.49-3.63 130.74-2.7 132.59-2.7Z" fill="white"></path><path d="M162.49-32L165.79-32Q165.44-30.25 165.16-28.43 164.89-26.6 164.79-24.85L164.79-24.85 171.19-24.85 170.34-21.55 164.79-21.55 164.79-6.1Q164.79-5.2 164.99-4.48 165.19-3.75 165.74-3.33 166.29-2.9 167.34-2.9L167.34-2.9Q168.14-2.9 168.94-3.05 169.74-3.2 170.49-3.4L170.49-3.4 171.19-0.4Q169.94-0.05 168.71 0.25 167.49 0.55 166.04 0.55L166.04 0.55Q162.84 0.55 161.54-1.13 160.24-2.8 160.24-5.9L160.24-5.9 160.24-21.55 156.44-21.55 156.44-24.2Q158.44-24.25 159.64-25.53 160.84-26.8 161.49-28.6 162.14-30.4 162.49-32L162.49-32ZM181.44-33.35L181.44-33.35Q181.44-32.05 180.51-31.1 179.59-30.15 178.19-30.15L178.19-30.15Q176.89-30.15 175.96-31.1 175.04-32.05 175.04-33.35L175.04-33.35Q175.04-34.65 175.96-35.6 176.89-36.55 178.23-36.55L178.23-36.55Q179.54-36.55 180.48-35.6 181.44-34.65 181.44-33.35ZM175.39-24.85L180.54-24.85 180.54 0 175.99 0 175.99-21.95 175.39-24.85ZM198.33-25.45L198.33-25.45Q200.23-25.45 202.18-24.83 204.13-24.2 205.93-22.95L205.93-22.95 203.53-19.85Q202.13-20.95 200.83-21.48 199.53-22 198.23-22L198.23-22Q196.68-22 195.46-21.28 194.23-20.55 193.31-19.25 192.38-17.95 191.91-16.23 191.43-14.5 191.43-12.45L191.43-12.45Q191.43-7.85 193.48-5.4 195.53-2.95 198.73-2.95L198.73-2.95Q200.18-2.95 201.56-3.38 202.93-3.8 204.43-4.7L204.43-4.7 205.83-1.85Q203.78-0.6 201.96 0.03 200.13 0.65 197.78 0.65L197.78 0.65Q194.43 0.65 191.91-1 189.38-2.65 187.96-5.63 186.53-8.6 186.53-12.6L186.53-12.6Q186.53-16.5 188.11-19.4 189.68-22.3 192.38-23.88 195.08-25.45 198.33-25.45ZM210.28-38.15L215.53-38.15 215.53-14.6 224.48-24.85 229.23-24.85 219.98-14.4 230.58 0 225.28 0 215.53-13.35 215.53 0 210.93 0 210.93-35.3 210.28-38.15ZM243.68-25.45L243.68-25.45Q246.78-25.45 248.85-24.18 250.93-22.9 251.98-20.68 253.03-18.45 253.03-15.6L253.03-15.6Q253.03-14.9 252.95-14.15 252.88-13.4 252.73-12.55L252.73-12.55 237.03-12.55Q237.03-8 239.1-5.5 241.18-3 244.58-3L244.58-3Q246.03-3 247.63-3.45 249.23-3.9 250.93-4.85L250.93-4.85 252.48-2.15Q250.78-0.75 248.48-0.05 246.18 0.65 243.98 0.65L243.98 0.65Q240.08 0.65 237.45-1.15 234.83-2.95 233.53-5.9 232.23-8.85 232.23-12.15L232.23-12.15Q232.23-14.7 232.95-17.05 233.68-19.4 235.13-21.33 236.58-23.25 238.7-24.35 240.83-25.45 243.68-25.45ZM243.33-22.1L243.33-22.1Q241.63-22.1 240.35-21.18 239.08-20.25 238.33-18.8 237.58-17.35 237.33-15.85L237.33-15.85 248.28-15.85Q248.38-17.8 247.78-19.2 247.18-20.6 246.05-21.35 244.93-22.1 243.33-22.1ZM261.78-32L265.08-32Q264.73-30.25 264.45-28.43 264.18-26.6 264.08-24.85L264.08-24.85 270.48-24.85 269.63-21.55 264.08-21.55 264.08-6.1Q264.08-5.2 264.28-4.48 264.48-3.75 265.03-3.33 265.58-2.9 266.63-2.9L266.63-2.9Q267.43-2.9 268.23-3.05 269.03-3.2 269.78-3.4L269.78-3.4 270.48-0.4Q269.23-0.05 268 0.25 266.78 0.55 265.33 0.55L265.33 0.55Q262.13 0.55 260.83-1.13 259.53-2.8 259.53-5.9L259.53-5.9 259.53-21.55 255.73-21.55 255.73-24.2Q257.73-24.25 258.93-25.53 260.13-26.8 260.78-28.6 261.43-30.4 261.78-32L261.78-32Z" fill="black"></path></g></svg></g></svg></g></svg></g></svg></g><g><svg viewBox="0 0 122.22842650406966 79.07686514541388" height="79.07686514541388" width="122.22842650406966"><g><svg xmlns="http://www.w3.org/2000/svg" xmlns:xlink="http://www.w3.org/1999/xlink" version="1.1" x="0" y="0" viewBox="5.114 21.264000000000003 87.228 56.432999999999986" enable-background="new 0 0 100 100" xml:space="preserve" height="79.07686514541388" width="122.22842650406966" class="icon-icon-0" data-fill-palette-color="accent" id="SvgjsSvg1674"><g fill="black"><polygon points="44.094,68.482 88.713,49.997 84.338,39.434 92.342,39.434 92.342,69.295 42.136,69.295 43.674,68.661  " fill="black"></polygon><polygon points="29.636,38.283 15.857,43.992 15.857,38.283  " fill="black"></polygon></g><g fill="black"><path d="M81.79 38.283l-7.053-17.019L33.652 38.283l-13.781 5.709L5.114 50.111l3.737 9.026c0.042-0.023 0.086-0.05 0.126-0.063 2.64-1.092 5.662 0.16 6.752 2.797 1.09 2.641-0.162 5.662-2.799 6.755-0.047 0.015-0.092 0.026-0.131 0.045l3.737 9.026 23.049-9.552 1.541-0.636 0.417-0.171 44.619-18.486L81.79 38.283zM33.477 64.547l1.271-0.537 0.645 1.548-1.273 0.544L33.477 64.547zM34.107 62.46l-1.273 0.532-0.643-1.552 1.273-0.539L34.107 62.46zM32.818 59.351l-1.271 0.54-0.645-1.557 1.273-0.532L32.818 59.351zM31.533 56.249l-1.273 0.538-0.645-1.553 1.273-0.54L31.533 56.249zM30.246 53.146l-1.271 0.534-0.645-1.552 1.273-0.533L30.246 53.146zM28.961 50.039l-1.273 0.542-0.642-1.552 1.271-0.538L28.961 50.039zM27.676 46.937l-1.268 0.535-0.65-1.552 1.271-0.538L27.676 46.937zM25.745 42.283l0.645 1.55-1.273 0.542-0.638-1.557L25.745 42.283zM36.679 68.669l-1.273 0.536-0.457-1.108-0.186-0.45 1.271-0.532 0.368 0.883L36.679 68.669z" fill="black"></path></g></svg></g></svg></g></svg></g><defs><mask></mask></defs></svg><rect width="395.52" height="58.8726576035629" fill="black" stroke="none" visibility="hidden"></rect></g></mask><linearGradient x1="0.054" x2="0.941" y1="0.5" y2="0.5" id="fc051539-70ec-4f6c-a637-a372fc47a535"><stop stop-color="#8c8c8c" offset="0"></stop><stop stop-color="#e3e4e5" offset="0.498"></stop><stop stop-color="#8c8c8c" offset="1"></stop></linearGradient><rect width="395.52" height="58.87265760356291" fill="url(#fc051539-70ec-4f6c-a637-a372fc47a535)" mask="url(#3fdc5511-5f9f-426a-8afd-fbf150c97e41)" data-fill-palette-color="primary"></rect></svg><rect width="395.52" height="58.8726576035629" fill="none" stroke="none" visibility="hidden"></rect></g></svg></g></svg>