<svg xmlns="http://www.w3.org/2000/svg" version="1.1" xmlns:xlink="http://www.w3.org/1999/xlink" xmlns:svgjs="http://svgjs.dev/svgjs" width="1500" height="284" viewBox="0 0 1500 284"><g transform="matrix(1,0,0,1,-0.9090909090907644,-0.7891723880832728)"><svg viewBox="0 0 396 75" data-background-color="#302e31" preserveAspectRatio="xMidYMid meet" height="284" width="1500" xmlns="http://www.w3.org/2000/svg" xmlns:xlink="http://www.w3.org/1999/xlink"><g id="tight-bounds" transform="matrix(1,0,0,1,0.23999999999995225,0.2084082010783277)"><svg viewBox="0 0 395.52 74.58318359784332" height="74.58318359784332" width="395.52"><g><svg viewBox="0 0 519.0072291231972 97.86916327443201" height="74.58318359784332" width="395.52"><g transform="matrix(1,0,0,1,123.48722912319731,13.526056574107464)"><svg viewBox="0 0 395.52 70.81705012621708" height="70.81705012621708" width="395.52"><g id="textblocktransform"><svg viewBox="0 0 395.52 70.81705012621708" height="70.81705012621708" width="395.52" id="textblock"><g><svg viewBox="0 0 395.52 70.81705012621708" height="70.81705012621708" width="395.52"><g transform="matrix(1,0,0,1,0,0)"><svg width="395.52" viewBox="1.1 -38.15 277.27 49.65" height="70.81705012621708" data-palette-color="#fcfcff"><path d="M11.75 0L11.75-32.7 1.1-32.7 1.1-36.45 27.8-36.45 27.8-32.7 17-32.7 17 0 11.75 0ZM38-33.35L38-33.35Q38-32.05 37.07-31.1 36.15-30.15 34.75-30.15L34.75-30.15Q33.45-30.15 32.52-31.1 31.6-32.05 31.6-33.35L31.6-33.35Q31.6-34.65 32.52-35.6 33.45-36.55 34.8-36.55L34.8-36.55Q36.1-36.55 37.05-35.6 38-34.65 38-33.35ZM31.95-24.85L37.1-24.85 37.1 0 32.55 0 32.55-21.95 31.95-24.85ZM54.89-25.45L54.89-25.45Q56.8-25.45 58.75-24.83 60.7-24.2 62.5-22.95L62.5-22.95 60.09-19.85Q58.7-20.95 57.39-21.48 56.09-22 54.8-22L54.8-22Q53.24-22 52.02-21.28 50.8-20.55 49.87-19.25 48.95-17.95 48.47-16.23 47.99-14.5 47.99-12.45L47.99-12.45Q47.99-7.85 50.05-5.4 52.09-2.95 55.3-2.95L55.3-2.95Q56.74-2.95 58.12-3.38 59.5-3.8 61-4.7L61-4.7 62.39-1.85Q60.34-0.6 58.52 0.03 56.7 0.65 54.34 0.65L54.34 0.65Q50.99 0.65 48.47-1 45.95-2.65 44.52-5.63 43.09-8.6 43.09-12.6L43.09-12.6Q43.09-16.5 44.67-19.4 46.24-22.3 48.95-23.88 51.64-25.45 54.89-25.45ZM66.84-38.15L72.09-38.15 72.09-14.6 81.04-24.85 85.79-24.85 76.54-14.4 87.14 0 81.84 0 72.09-13.35 72.09 0 67.49 0 67.49-35.3 66.84-38.15ZM98.54 0L98.54-32.7 87.89-32.7 87.89-36.45 114.59-36.45 114.59-32.7 103.79-32.7 103.79 0 98.54 0ZM124.79-33.35L124.79-33.35Q124.79-32.05 123.86-31.1 122.94-30.15 121.54-30.15L121.54-30.15Q120.24-30.15 119.31-31.1 118.39-32.05 118.39-33.35L118.39-33.35Q118.39-34.65 119.31-35.6 120.24-36.55 121.59-36.55L121.59-36.55Q122.89-36.55 123.84-35.6 124.79-34.65 124.79-33.35ZM118.74-24.85L123.89-24.85 123.89 0 119.34 0 119.34-21.95 118.74-24.85ZM141.69-25.45L141.69-25.45Q143.59-25.45 145.54-24.83 147.49-24.2 149.29-22.95L149.29-22.95 146.89-19.85Q145.49-20.95 144.19-21.48 142.89-22 141.59-22L141.59-22Q140.04-22 138.81-21.28 137.59-20.55 136.66-19.25 135.74-17.95 135.26-16.23 134.79-14.5 134.79-12.45L134.79-12.45Q134.79-7.85 136.84-5.4 138.89-2.95 142.09-2.95L142.09-2.95Q143.54-2.95 144.91-3.38 146.29-3.8 147.79-4.7L147.79-4.7 149.19-1.85Q147.14-0.6 145.31 0.03 143.49 0.65 141.14 0.65L141.14 0.65Q137.79 0.65 135.26-1 132.74-2.65 131.31-5.63 129.89-8.6 129.89-12.6L129.89-12.6Q129.89-16.5 131.46-19.4 133.04-22.3 135.74-23.88 138.44-25.45 141.69-25.45ZM153.63-38.15L158.88-38.15 158.88-14.6 167.83-24.85 172.58-24.85 163.33-14.4 173.93 0 168.63 0 158.88-13.35 158.88 0 154.28 0 154.28-35.3 153.63-38.15ZM186.03-25.45L186.03-25.45Q189.13-25.45 191.21-24.18 193.28-22.9 194.33-20.68 195.38-18.45 195.38-15.6L195.38-15.6Q195.38-14.9 195.31-14.15 195.23-13.4 195.08-12.55L195.08-12.55 179.38-12.55Q179.38-8 181.46-5.5 183.53-3 186.93-3L186.93-3Q188.38-3 189.98-3.45 191.58-3.9 193.28-4.85L193.28-4.85 194.83-2.15Q193.13-0.75 190.83-0.05 188.53 0.65 186.33 0.65L186.33 0.65Q182.43 0.65 179.81-1.15 177.18-2.95 175.88-5.9 174.58-8.85 174.58-12.15L174.58-12.15Q174.58-14.7 175.31-17.05 176.03-19.4 177.48-21.33 178.93-23.25 181.06-24.35 183.18-25.45 186.03-25.45ZM185.68-22.1L185.68-22.1Q183.98-22.1 182.71-21.18 181.43-20.25 180.68-18.8 179.93-17.35 179.68-15.85L179.68-15.85 190.63-15.85Q190.73-17.8 190.13-19.2 189.53-20.6 188.41-21.35 187.28-22.1 185.68-22.1ZM204.38-32L207.68-32Q207.33-30.25 207.05-28.43 206.78-26.6 206.68-24.85L206.68-24.85 213.08-24.85 212.23-21.55 206.68-21.55 206.68-6.1Q206.68-5.2 206.88-4.48 207.08-3.75 207.63-3.33 208.18-2.9 209.23-2.9L209.23-2.9Q210.03-2.9 210.83-3.05 211.63-3.2 212.38-3.4L212.38-3.4 213.08-0.4Q211.83-0.05 210.6 0.25 209.38 0.55 207.93 0.55L207.93 0.55Q204.73 0.55 203.43-1.13 202.13-2.8 202.13-5.9L202.13-5.9 202.13-21.55 198.33-21.55 198.33-24.2Q200.33-24.25 201.53-25.53 202.73-26.8 203.38-28.6 204.03-30.4 204.38-32L204.38-32ZM223.33-33.35L223.33-33.35Q223.33-32.05 222.4-31.1 221.48-30.15 220.08-30.15L220.08-30.15Q218.78-30.15 217.85-31.1 216.93-32.05 216.93-33.35L216.93-33.35Q216.93-34.65 217.85-35.6 218.78-36.55 220.13-36.55L220.13-36.55Q221.43-36.55 222.38-35.6 223.33-34.65 223.33-33.35ZM217.28-24.85L222.43-24.85 222.43 0 217.88 0 217.88-21.95 217.28-24.85ZM228.72-24.65L233.67-25.3Q234.02-24.45 234.25-23.58 234.47-22.7 234.57-21.8L234.57-21.8Q236.07-23.25 238.12-24.35 240.17-25.45 242.27-25.45L242.27-25.45Q245.07-25.45 246.72-24.33 248.37-23.2 249.12-21.23 249.87-19.25 249.87-16.65L249.87-16.65 249.87 0 245.32 0 245.32-15.45Q245.32-16.9 245.12-18.32 244.92-19.75 244.1-20.65 243.27-21.55 241.37-21.55L241.37-21.55Q240.27-21.55 239.05-21.08 237.82-20.6 236.75-19.88 235.67-19.15 234.87-18.35L234.87-18.35 234.87 0 230.37 0 230.37-17.65Q230.37-18.6 230.22-19.93 230.07-21.25 229.72-22.55 229.37-23.85 228.72-24.65L228.72-24.65ZM264.77-25.5L264.77-25.5Q266.22-25.5 267.52-25.13 268.82-24.75 270.22-24.75L270.22-24.75Q272.17-24.75 274.2-24.98 276.22-25.2 278.37-25.5L278.37-25.5 277.42-21.75 273.37-21.75Q273.02-21.75 272.67-21.8 272.32-21.85 271.97-21.9L271.97-21.9Q272.82-20.8 273.25-19.58 273.67-18.35 273.67-17.05L273.67-17.05Q273.67-14.55 272.52-12.55 271.37-10.55 269.22-9.43 267.07-8.3 264.12-8.3L264.12-8.3Q262.97-8.3 262.07-7.68 261.17-7.05 261.17-5.75L261.17-5.75Q261.17-4.9 261.67-4.53 262.17-4.15 262.92-4.1 263.67-4.05 264.42-4.05L264.42-4.05 268.77-4.05Q270.12-4.05 271.52-3.88 272.92-3.7 274.12-3.18 275.32-2.65 276.05-1.6 276.77-0.55 276.77 1.25L276.77 1.25Q276.77 4 275.65 5.95 274.52 7.9 272.65 9.15 270.77 10.4 268.45 10.95 266.12 11.5 263.77 11.5L263.77 11.5Q262.37 11.5 260.77 11.2 259.17 10.9 257.77 10.18 256.37 9.45 255.5 8.25 254.62 7.05 254.62 5.2L254.62 5.2Q254.62 3.25 255.82 1.75 257.02 0.25 258.62-0.7L258.62-0.7 258.62-0.9Q257.57-1.35 256.92-2.33 256.27-3.3 256.27-4.45L256.27-4.45Q256.27-5.05 256.77-5.6 257.27-6.15 258.07-7.1 258.87-8.05 259.77-9.7L259.77-9.7Q257.97-10.9 256.9-12.78 255.82-14.65 255.82-16.85L255.82-16.85Q255.82-19.3 257.05-21.25 258.27-23.2 260.32-24.35 262.37-25.5 264.77-25.5ZM264.77-22.3L264.77-22.3Q263.02-22.3 261.8-20.73 260.57-19.15 260.57-16.85L260.57-16.85Q260.57-14.5 261.8-12.93 263.02-11.35 264.72-11.35L264.72-11.35Q266.67-11.35 267.82-12.88 268.97-14.4 268.97-16.8L268.97-16.8Q268.97-19.15 267.75-20.73 266.52-22.3 264.77-22.3ZM267.52 0.05L261.82 0.05Q260.87 0.7 260.07 1.93 259.27 3.15 259.27 4.3L259.27 4.3Q259.27 5.5 260.12 6.3 260.97 7.1 262.22 7.5 263.47 7.9 264.52 7.9L264.52 7.9Q266.22 7.9 268.1 7.43 269.97 6.95 271.27 5.83 272.57 4.7 272.57 2.7L272.57 2.7Q272.57 1.4 271.75 0.85 270.92 0.3 269.77 0.18 268.62 0.05 267.52 0.05L267.52 0.05Z" opacity="1" transform="matrix(1,0,0,1,0,0)" fill="#fcfcff" class="wordmark-text-0" data-fill-palette-color="primary" id="text-0"></path></svg></g></svg></g></svg></g></svg></g><g><svg viewBox="0 0 106.76902319760049 97.86916327443201" height="97.86916327443201" width="106.76902319760049"><g><svg xmlns="http://www.w3.org/2000/svg" xmlns:xlink="http://www.w3.org/1999/xlink" version="1.0" x="0" y="0" viewBox="9.999649095248458 13.33404676201106 80.00035090475154 73.33182575079458" enable-background="new 0 0 100 100" xml:space="preserve" height="97.86916327443201" width="106.76902319760049" class="icon-icon-0" data-fill-palette-color="accent" id="icon-0"><path d="M84.16 14.148l-71.047 29.57c0 0-3.359 1.221-3.099 3.473 0.267 2.256 3.008 3.288 3.008 3.288l17.877 6.382c0 0 5.396 18.772 6.458 22.344 1.062 3.562 1.914 3.646 1.914 3.646 0.989 0.456 1.888-0.27 1.888-0.27l11.55-11.169L70.71 86.054c4.869 2.253 6.641-2.441 6.641-2.441L90 15.935C90 11.427 84.16 14.148 84.16 14.148zM71.582 78.17L52.324 62.51l-5.976 5.777 1.314-12.291 25.67-24.329L38.341 52.441l-15.521-5.54 59.217-24.648L71.582 78.17z" fill="#f8f8f8" data-fill-palette-color="accent"></path></svg></g></svg></g></svg></g><defs></defs></svg><rect width="395.52" height="74.58318359784332" fill="none" stroke="none" visibility="hidden"></rect></g></svg></g></svg>